<svg width="512" height="512" viewBox="0 0 512 512" fill="none" xmlns="http://www.w3.org/2000/svg">
<path d="M251.123 117.591C252.297 112.393 259.703 112.393 260.877 117.591L277.827 192.631C278.588 196 282.454 197.601 285.374 195.757L350.421 154.682C354.927 151.836 360.164 157.073 357.318 161.579L316.243 226.626C314.399 229.546 316 233.412 319.369 234.173L394.409 251.123C399.607 252.297 399.607 259.703 394.409 260.877L319.369 277.827C316 278.588 314.399 282.454 316.243 285.374L357.318 350.421C360.164 354.927 354.927 360.164 350.421 357.318L285.374 316.243C282.454 314.399 278.588 316 277.827 319.369L260.877 394.409C259.703 399.607 252.297 399.607 251.123 394.409L234.173 319.369C233.412 316 229.546 314.399 226.626 316.243L161.579 357.318C157.073 360.164 151.836 354.927 154.682 350.421L195.757 285.374C197.601 282.454 196 278.588 192.631 277.827L117.591 260.877C112.393 259.703 112.393 252.297 117.591 251.123L192.631 234.173C196 233.412 197.601 229.546 195.757 226.626L154.682 161.579C151.836 157.073 157.073 151.836 161.579 154.682L226.626 195.757C229.546 197.601 233.412 196 234.173 192.631L251.123 117.591Z" fill="black"/>
</svg>
