<svg width="512" height="512" viewBox="0 0 512 512" fill="none" xmlns="http://www.w3.org/2000/svg">
<rect width="512" height="512" rx="90" fill="#5C4FEB"/>
<path d="M152.919 367.806L305.231 144.194H359.081L206.77 367.806H152.919ZM174.268 265.583C163.009 265.583 152.919 263.241 143.997 258.556C135.075 253.657 127.958 246.523 122.647 237.153C117.549 227.782 115 216.495 115 203.292C115 190.088 117.549 178.907 122.647 169.75C127.958 160.38 135.075 153.245 143.997 148.347C152.919 143.449 163.009 141 174.268 141C185.527 141 195.617 143.449 204.539 148.347C213.461 153.245 220.471 160.38 225.569 169.75C230.88 178.907 233.536 190.088 233.536 203.292C233.536 216.495 230.88 227.782 225.569 237.153C220.471 246.523 213.461 253.657 204.539 258.556C195.617 263.241 185.527 265.583 174.268 265.583ZM174.268 231.083C177.879 231.083 181.066 229.167 183.827 225.333C186.801 221.287 188.288 213.94 188.288 203.292C188.288 192.644 186.801 185.403 183.827 181.569C181.066 177.523 177.879 175.5 174.268 175.5C170.869 175.5 167.682 177.523 164.708 181.569C161.734 185.403 160.247 192.644 160.247 203.292C160.247 213.94 161.734 221.287 164.708 225.333C167.682 229.167 170.869 231.083 174.268 231.083ZM337.732 371C326.473 371 316.383 368.657 307.461 363.972C298.539 359.074 291.423 351.94 286.112 342.569C281.014 333.199 278.464 321.912 278.464 308.708C278.464 295.505 281.014 284.324 286.112 275.167C291.423 265.796 298.539 258.662 307.461 253.764C316.383 248.866 326.473 246.417 337.732 246.417C348.991 246.417 359.081 248.866 368.003 253.764C376.925 258.662 383.936 265.796 389.034 275.167C394.345 284.324 397 295.505 397 308.708C397 321.912 394.345 333.199 389.034 342.569C383.936 351.94 376.925 359.074 368.003 363.972C359.081 368.657 348.991 371 337.732 371ZM337.732 336.5C341.344 336.5 344.53 334.583 347.292 330.75C350.266 326.704 351.753 319.356 351.753 308.708C351.753 298.06 350.266 290.819 347.292 286.986C344.53 282.94 341.344 280.917 337.732 280.917C334.333 280.917 331.147 282.94 328.173 286.986C325.199 290.819 323.712 298.06 323.712 308.708C323.712 319.356 325.199 326.704 328.173 330.75C331.147 334.583 334.333 336.5 337.732 336.5Z" fill="white"/>
</svg>
