<svg width="512" height="512" viewBox="0 0 512 512" fill="none" xmlns="http://www.w3.org/2000/svg">
<path fill-rule="evenodd" clip-rule="evenodd" d="M90 0C40.2944 0 0 40.2944 0 90V422C0 471.706 40.2944 512 90 512H422C471.706 512 512 471.706 512 422V90C512 40.2944 471.706 0 422 0H90ZM305.23 144.194L152.918 367.806H206.77L359.081 144.194H305.23ZM143.997 258.556C152.918 263.241 163.009 265.583 174.268 265.583C185.526 265.583 195.617 263.241 204.539 258.556C213.461 253.657 220.471 246.523 225.569 237.153C230.88 227.782 233.536 216.495 233.536 203.292C233.536 190.088 230.88 178.907 225.569 169.75C220.471 160.38 213.461 153.245 204.539 148.347C195.617 143.449 185.526 141 174.268 141C163.009 141 152.918 143.449 143.997 148.347C135.075 153.245 127.958 160.38 122.647 169.75C117.549 178.907 115 190.088 115 203.292C115 216.495 117.549 227.782 122.647 237.153C127.958 246.523 135.075 253.657 143.997 258.556ZM183.827 225.333C181.065 229.167 177.879 231.083 174.268 231.083C170.869 231.083 167.683 229.167 164.708 225.333C161.734 221.287 160.248 213.94 160.248 203.292C160.248 192.644 161.734 185.403 164.708 181.569C167.683 177.523 170.869 175.5 174.268 175.5C177.879 175.5 181.065 177.523 183.827 181.569C186.801 185.403 188.288 192.644 188.288 203.292C188.288 213.94 186.801 221.287 183.827 225.333ZM307.461 363.972C316.383 368.657 326.473 371 337.732 371C348.991 371 359.081 368.657 368.003 363.972C376.926 359.074 383.936 351.94 389.034 342.569C394.345 333.199 397 321.912 397 308.708C397 295.505 394.345 284.324 389.034 275.167C383.936 265.796 376.926 258.662 368.003 253.764C359.081 248.866 348.991 246.417 337.732 246.417C326.473 246.417 316.383 248.866 307.461 253.764C298.539 258.662 291.423 265.796 286.112 275.167C281.014 284.324 278.464 295.505 278.464 308.708C278.464 321.912 281.014 333.199 286.112 342.569C291.423 351.94 298.539 359.074 307.461 363.972ZM347.292 330.75C344.53 334.583 341.344 336.5 337.732 336.5C334.333 336.5 331.147 334.583 328.173 330.75C325.199 326.704 323.712 319.356 323.712 308.708C323.712 298.06 325.199 290.819 328.173 286.986C331.147 282.94 334.333 280.917 337.732 280.917C341.344 280.917 344.53 282.94 347.292 286.986C350.266 290.819 351.753 298.06 351.753 308.708C351.753 319.356 350.266 326.704 347.292 330.75Z" fill="#5C4FEB"/>
</svg>
