<svg width="512" height="512" viewBox="0 0 512 512" fill="none" xmlns="http://www.w3.org/2000/svg">
<path fill-rule="evenodd" clip-rule="evenodd" d="M302.63 132.118C312.847 128.211 324.948 127.747 333.523 132.035C336.597 133.572 343.231 137.263 347.414 146.009C351.519 154.593 350.632 163.336 348.678 168.221C347.86 170.266 346.541 172.959 343.843 175.957C341.276 178.809 337.76 181.608 332.907 184.462L332.602 184.642L332.285 184.8C324.35 188.768 314.47 189.611 306.654 189.611C298.501 189.611 290.934 188.668 286.666 188.001C286.495 187.975 286.319 187.947 286.137 187.919C282.476 187.35 276.644 186.444 271.767 184.429C269.144 183.345 265.88 181.589 263.301 178.598C260.439 175.277 258.884 170.941 259.354 166.081C259.71 162.406 261.466 159.527 262.789 157.74C264.223 155.802 265.974 154.055 267.688 152.547C271.128 149.518 275.452 146.552 279.681 143.939C288.11 138.732 297.674 134.013 302.63 132.118ZM324.223 150.635C323.527 150.287 321.76 149.765 318.938 149.798C316.234 149.83 313.117 150.372 310.058 151.542C306.597 152.865 298.213 156.935 290.611 161.631C287.952 163.274 285.576 164.879 283.641 166.355C283.779 166.386 283.92 166.416 284.064 166.446C285.914 166.835 287.829 167.135 289.854 167.451L289.854 167.451L289.877 167.455C293.531 168.026 299.951 168.815 306.653 168.815C313.501 168.815 319.215 167.973 322.7 166.338C326.035 164.343 327.636 162.879 328.386 162.045C329.03 161.329 329.197 160.928 329.37 160.497C329.348 160.551 329.348 160.549 329.361 160.493C329.398 160.331 329.536 159.722 329.524 158.766C329.509 157.597 329.271 156.273 328.653 154.981C327.976 153.566 327.181 152.678 326.483 152.077C325.753 151.448 325.012 151.03 324.223 150.635L324.223 150.635ZM279.408 170.254C279.41 170.254 279.431 170.224 279.464 170.167C279.423 170.226 279.406 170.254 279.408 170.254ZM178.122 132.079C186.697 127.791 198.798 128.255 209.014 132.162C213.971 134.057 223.535 138.776 231.964 143.983C236.193 146.596 240.517 149.562 243.957 152.591C245.671 154.1 247.422 155.846 248.856 157.784C250.179 159.571 251.935 162.45 252.291 166.125C252.761 170.985 251.206 175.321 248.343 178.642C245.765 181.633 242.501 183.389 239.878 184.473C235.001 186.488 229.169 187.394 225.508 187.963L225.508 187.963L225.508 187.963L224.979 188.045C220.711 188.712 213.144 189.656 204.991 189.655C197.175 189.655 187.295 188.812 179.36 184.844L179.043 184.686L178.738 184.506C173.885 181.652 170.369 178.853 167.802 176.001C165.104 173.004 163.785 170.31 162.967 168.265C161.013 163.38 160.126 154.637 164.231 146.053C168.414 137.307 175.048 133.616 178.122 132.079ZM192.707 149.842C189.885 149.809 188.118 150.331 187.422 150.679L187.422 150.679C186.633 151.074 185.892 151.492 185.162 152.121C184.464 152.723 183.669 153.611 182.992 155.025C182.374 156.317 182.136 157.641 182.121 158.81C182.109 159.767 182.247 160.375 182.284 160.537L182.284 160.537C182.297 160.593 182.297 160.595 182.275 160.541C182.448 160.972 182.615 161.373 183.259 162.089C184.009 162.923 185.61 164.387 188.945 166.382C192.43 168.018 198.144 168.859 204.991 168.859C211.694 168.86 218.114 168.07 221.768 167.499L221.791 167.495L221.791 167.495L221.791 167.495C223.816 167.179 225.731 166.88 227.581 166.49C227.725 166.46 227.866 166.43 228.004 166.4C226.069 164.923 223.693 163.318 221.034 161.675C213.432 156.979 205.048 152.91 201.587 151.586C198.528 150.417 195.411 149.874 192.707 149.842ZM232.237 170.298C232.235 170.298 232.214 170.269 232.181 170.212C232.222 170.27 232.239 170.298 232.237 170.298ZM374.144 196.835C376.059 196.835 377.611 198.387 377.611 200.301V254.767C377.611 256.681 376.059 258.233 374.145 258.233H269.174C267.26 258.233 265.708 256.681 265.708 254.767V200.301C265.708 198.387 267.26 196.835 269.174 196.835H374.144ZM137.466 196.835C135.552 196.835 134 198.387 134 200.301V254.767C134 256.681 135.552 258.233 137.466 258.233H242.436C244.35 258.233 245.902 256.681 245.902 254.767V200.301C245.902 198.387 244.35 196.835 242.436 196.835H137.466ZM147.369 274.572C147.369 272.658 148.921 271.106 150.835 271.106H242.437C244.351 271.106 245.903 272.658 245.903 274.572V380.533C245.903 382.447 244.351 383.999 242.437 383.999H150.835C148.921 383.999 147.369 382.447 147.369 380.533V274.572ZM360.775 271.106C362.689 271.106 364.241 272.658 364.241 274.572V380.533C364.241 382.447 362.689 383.999 360.775 383.999H269.174C267.26 383.999 265.708 382.447 265.708 380.533V274.572C265.708 272.658 267.26 271.106 269.174 271.106H360.775Z" fill="black"/>
</svg>
