<svg width="512" height="512" viewBox="0 0 512 512" fill="none" xmlns="http://www.w3.org/2000/svg">
<path fill-rule="evenodd" clip-rule="evenodd" d="M90 0C40.2944 0 0 40.2944 0 90V422C0 471.706 40.2944 512 90 512H422C471.706 512 512 471.706 512 422V90C512 40.2944 471.706 0 422 0H90ZM333.523 132.035C324.948 127.747 312.847 128.211 302.63 132.118C297.674 134.013 288.11 138.732 279.681 143.939C275.452 146.552 271.128 149.518 267.688 152.547C265.974 154.056 264.223 155.802 262.789 157.74C261.466 159.527 259.71 162.406 259.354 166.081C258.884 170.941 260.439 175.277 263.302 178.598C265.88 181.589 269.144 183.345 271.767 184.429C276.645 186.444 282.476 187.35 286.137 187.919L286.666 188.001C290.934 188.668 298.501 189.611 306.654 189.611C314.47 189.611 324.35 188.768 332.285 184.8L332.602 184.642L332.907 184.462C337.76 181.608 341.276 178.809 343.843 175.957C346.541 172.959 347.86 170.266 348.678 168.221C350.632 163.336 351.519 154.593 347.414 146.009C343.231 137.263 336.597 133.572 333.523 132.035ZM318.938 149.798C321.76 149.765 323.527 150.287 324.223 150.635C325.012 151.03 325.753 151.448 326.482 152.077C327.181 152.678 327.976 153.566 328.653 154.981C329.271 156.273 329.509 157.597 329.524 158.766C329.536 159.719 329.399 160.326 329.362 160.491L329.361 160.493C329.348 160.549 329.348 160.551 329.37 160.497C329.197 160.928 329.03 161.329 328.386 162.045C327.635 162.879 326.035 164.343 322.7 166.338C319.215 167.973 313.501 168.815 306.654 168.815C299.951 168.815 293.531 168.026 289.876 167.455L289.854 167.451C287.829 167.135 285.914 166.835 284.064 166.446L283.802 166.391L283.641 166.355C285.576 164.879 287.952 163.274 290.611 161.631C298.213 156.935 306.597 152.865 310.058 151.542C313.117 150.372 316.234 149.83 318.938 149.798ZM279.427 170.222C279.436 170.208 279.448 170.19 279.464 170.167C279.431 170.224 279.41 170.254 279.408 170.254C279.407 170.254 279.413 170.243 279.427 170.222ZM209.015 132.162C198.797 128.255 186.697 127.791 178.122 132.079C175.047 133.616 168.414 137.307 164.231 146.053C160.126 154.637 161.013 163.38 162.967 168.266C163.785 170.31 165.104 173.004 167.802 176.001C170.369 178.853 173.885 181.652 178.738 184.506L179.043 184.686L179.36 184.844C187.295 188.812 197.175 189.656 204.991 189.656C213.144 189.656 220.711 188.712 224.979 188.045L225.508 187.963C229.169 187.394 235 186.488 239.878 184.473C242.501 183.389 245.765 181.633 248.343 178.642C251.206 175.321 252.761 170.985 252.291 166.125C251.935 162.45 250.179 159.571 248.856 157.784C247.422 155.846 245.671 154.1 243.957 152.591C240.517 149.562 236.193 146.596 231.964 143.983C223.536 138.776 213.971 134.057 209.015 132.162ZM187.422 150.679C188.118 150.331 189.885 149.809 192.707 149.842C195.411 149.874 198.528 150.417 201.587 151.586C205.048 152.91 213.432 156.979 221.034 161.675C223.693 163.318 226.068 164.923 228.004 166.4L227.777 166.449L227.581 166.49C225.731 166.88 223.816 167.179 221.791 167.495L221.769 167.499C218.114 168.07 211.693 168.859 204.992 168.859C198.144 168.859 192.43 168.018 188.945 166.382C185.61 164.387 184.009 162.923 183.259 162.089C182.615 161.373 182.448 160.972 182.275 160.541C182.297 160.595 182.296 160.593 182.284 160.537C182.247 160.375 182.109 159.767 182.121 158.81C182.136 157.641 182.375 156.317 182.992 155.026C183.669 153.611 184.464 152.723 185.163 152.121C185.893 151.492 186.632 151.074 187.422 150.679ZM232.237 170.298C232.235 170.298 232.214 170.269 232.181 170.212C232.223 170.27 232.239 170.298 232.237 170.298ZM377.611 200.301C377.611 198.387 376.059 196.835 374.145 196.835H269.174C267.26 196.835 265.708 198.387 265.708 200.301V254.767C265.708 256.681 267.26 258.233 269.174 258.233H374.145C376.059 258.233 377.611 256.681 377.611 254.767V200.301ZM134 200.301C134 198.387 135.552 196.835 137.466 196.835H242.436C244.351 196.835 245.902 198.387 245.902 200.301V254.767C245.902 256.681 244.351 258.233 242.436 258.233H137.466C135.552 258.233 134 256.681 134 254.767V200.301ZM150.835 271.106C148.921 271.106 147.369 272.658 147.369 274.572V380.533C147.369 382.447 148.921 383.999 150.835 383.999H242.437C244.351 383.999 245.902 382.447 245.902 380.533V274.572C245.902 272.658 244.351 271.106 242.437 271.106H150.835ZM364.241 274.572C364.241 272.658 362.689 271.106 360.775 271.106H269.174C267.26 271.106 265.708 272.658 265.708 274.572V380.533C265.708 382.447 267.26 383.999 269.174 383.999H360.775C362.689 383.999 364.241 382.447 364.241 380.533V274.572Z" fill="#5C4FEB"/>
</svg>
