<svg width="512" height="512" viewBox="0 0 512 512" fill="none" xmlns="http://www.w3.org/2000/svg">
<path fill-rule="evenodd" clip-rule="evenodd" d="M90 0C40.2944 0 0 40.2944 0 90V422C0 471.706 40.2944 512 90 512H422C471.706 512 512 471.706 512 422V90C512 40.2944 471.706 0 422 0H90ZM260.877 117.591C259.703 112.393 252.297 112.393 251.123 117.591L234.173 192.631C233.412 196 229.546 197.601 226.626 195.757L161.579 154.682C157.073 151.836 151.836 157.073 154.682 161.579L195.757 226.626C197.601 229.546 196 233.412 192.631 234.173L117.591 251.123C112.393 252.297 112.393 259.703 117.591 260.877L192.631 277.827C196 278.588 197.601 282.454 195.757 285.374L154.682 350.421C151.836 354.927 157.073 360.164 161.579 357.318L226.626 316.243C229.546 314.399 233.412 316 234.173 319.369L251.123 394.409C252.297 399.607 259.703 399.607 260.877 394.409L277.827 319.369C278.588 316 282.454 314.399 285.374 316.243L350.421 357.318C354.927 360.164 360.164 354.927 357.318 350.421L316.243 285.374C314.399 282.454 316 278.588 319.369 277.827L394.409 260.877C399.607 259.703 399.607 252.297 394.409 251.123L319.369 234.173C316 233.412 314.399 229.546 316.243 226.626L357.318 161.579C360.164 157.073 354.927 151.836 350.421 154.682L285.374 195.757C282.454 197.601 278.588 196 277.827 192.631L260.877 117.591Z" fill="#5C4FEB"/>
</svg>
